<svg version="1.2" baseProfile="tiny-ps" xmlns="http://www.w3.org/2000/svg" viewBox="0 0 100 51" width="100" height="51">
	<title>Clients</title>
	<style>
		tspan { white-space:pre }
		.s0 { fill: #707070 } 
	</style>
	<g id="Clients">
		<g id="Logo Set">
			<path id="Logo 6" class="s0" d="m69 1.05l9.01-0.03v27.96l-9.01-0.03v-27.9zm24.64 7.19c0.12-0.15 0.92-0.22 2.11-0.22c0.57 0 1.05-0.07 1.56-0.03c0.53 0.05 1.13-0.08 1.64-0.02l1 0.04v-7.36l-0.57-0.25c-0.65-0.14-1.36-0.23-2.15-0.3c-0.76-0.07-1.63-0.1-2.61-0.1c-3.46 0-6.08 0.95-7.81 2.81c-1.69 1.84-1.82 3.74-1.82 7.39l-0.03 1.79l-4.97-0.03l0.03 7.01l4.97 0.03v10.04l7.99-0.03v-10.01l6.01-0.03v-6.98h-6.01v-1.48c0-1.75 0.45-2.03 0.65-2.28zm-33.75 5.79c-1.33-0.9-2.86-1.55-4.54-1.93c-1.61-0.37-3.57-1.08-5.68-1.08c-11.54 0-14.27 6.23-14.56 11.02l-0.15 0.96l9.03-0.03l0-1c0.04-1.2 0.47-1.84 1.26-2.38c0.9-0.62 2.28-0.94 4.15-0.94c2.35 0 3.43 0.51 3.97 0.98c0.52 0.41 1.43 0.79 1.6 1.56c0.09 0.35 0.01 0.96 0.04 1.53c0.01 0.32 0.02 0.95 0.03 1.31h-1.7c-6.32 0-10.96 0.66-14.19 2.52c-1.38 0.8-1.28 1.33-2.11 2.46h26.95l-0.03-6.01c0-2.64-0.37-3.56-1-5.12c-0.68-1.63-1.71-2.92-3.07-3.83zm-40.63-3.02c-2.8 0-5.76 1.76-8.16 3.61c0-0.27-0.05-0.83-0.05-1.11c0.01-1.28-0.03-3.44-0.03-4.77l0.06-8.69h-9.08l0.01 28.94l9-0.02l0.01-5.95c1.07-1.19 2.57-2.11 3.58-2.65c1.07-0.56 2.16-0.84 3.22-0.84c0.75 0 1.37 0.08 1.84 0.25c0.39 0.14 0.69 0.36 0.93 0.66c0.26 0.33 0.22 0.55 0.35 1.11c0.14 0.69 0.06 1.7 0.06 2.7v4.74l8.96 0.03v-5.57c0-8.06-3.23-12.44-10.71-12.44zm-11.65 39.99c-1.16 0-2.17-0.14-3.04-0.41c-0.86-0.28-1.59-0.66-2.17-1.15c-0.58-0.49-1.02-1.08-1.32-1.77c-0.3-0.69-0.46-1.43-0.49-2.25h2.09c0.05 0.62 0.22 1.16 0.5 1.62c0.27 0.46 0.63 0.83 1.06 1.14c0.43 0.3 0.92 0.52 1.48 0.66c0.55 0.14 1.14 0.21 1.78 0.21c0.62 0 1.17-0.06 1.67-0.19c0.5-0.13 0.93-0.31 1.29-0.56c0.36-0.24 0.63-0.54 0.82-0.88c0.19-0.35 0.29-0.74 0.29-1.18c0-0.45-0.09-0.83-0.26-1.14c-0.18-0.31-0.47-0.58-0.87-0.82c-0.4-0.23-0.93-0.44-1.58-0.63c-0.65-0.19-1.46-0.38-2.4-0.57c-0.92-0.21-1.72-0.45-2.38-0.72c-0.67-0.26-1.21-0.58-1.65-0.94c-0.43-0.36-0.74-0.77-0.95-1.24c-0.21-0.47-0.31-1.01-0.31-1.61c0-0.66 0.14-1.27 0.43-1.83c0.28-0.56 0.68-1.04 1.19-1.44c0.52-0.41 1.13-0.72 1.85-0.95c0.72-0.23 1.51-0.35 2.38-0.35c0.92 0 1.76 0.12 2.52 0.35c0.76 0.22 1.41 0.55 1.96 0.98c0.55 0.43 0.99 0.94 1.3 1.55c0.32 0.61 0.49 1.3 0.51 2.07h-2.11c-0.22-1.98-1.58-2.97-4.08-2.97c-1.22 0-2.16 0.23-2.82 0.68c-0.66 0.45-0.99 1.06-0.99 1.83c0 0.35 0.06 0.65 0.18 0.89c0.12 0.25 0.33 0.47 0.62 0.65c0.29 0.19 0.68 0.36 1.16 0.51c0.49 0.15 1.09 0.3 1.81 0.46c0.5 0.1 1 0.22 1.52 0.34c0.52 0.11 1.02 0.26 1.51 0.43c0.49 0.17 0.95 0.37 1.39 0.61c0.44 0.24 0.82 0.53 1.15 0.87c0.33 0.34 0.59 0.74 0.78 1.21c0.19 0.46 0.28 1.01 0.28 1.63c0 0.72-0.15 1.38-0.45 1.98c-0.3 0.6-0.73 1.12-1.27 1.56c-0.55 0.44-1.19 0.78-1.93 1.03c-0.75 0.25-1.56 0.37-2.44 0.37zm22.43-15.04l-5.03 0.03l-0.03 14.97l-1.98 0.09v-15.06l-4.97 0.03l-0.03-2.01h12.01l0.03 1.95zm13.2 15.04c-1.02 0-1.89-0.1-2.6-0.31c-0.71-0.2-1.31-0.49-1.78-0.84c-0.48-0.35-0.86-0.76-1.13-1.23c-0.27-0.47-0.26-0.38-0.41-0.91c-0.14-0.54-0.26-1.46-0.3-2.03c-0.04-0.57-0.03-1.35-0.03-1.9v-9.74l1.96-0.03v9.74c0 1.1 0.1 2 0.29 2.69c0.19 0.69 0.47 1.23 0.83 1.62c0.36 0.39 0.81 0.65 1.34 0.79c0.53 0.13 1.14 0.2 1.83 0.2c0.69 0 1.3-0.07 1.83-0.21c0.53-0.14 0.98-0.41 1.33-0.8c0.36-0.39 1.35-0.93 1.53-1.62c0.19-0.69 0.09-1.58 0.09-2.67l-0.03-9.77l2.01 0.03v9.78c0 1.13 0.09 2.27-0.1 3.17c-0.2 0.89-1.03 1.52-1.52 2.14c-0.49 0.62-1.15 1.09-1.98 1.42c-0.83 0.33-1.89 0.49-3.17 0.49zm26.67-8.59c0 5.53-2.76 8.55-8.35 8.55l-5.58 0.03l0.03-17.02l5.74 0.03c5.59 0 8.16 2.99 8.16 8.4zm-2.24 0c0-0.96-0.1-1.82-0.28-2.58c-0.19-0.77-0.52-1.41-0.99-1.94c-0.47-0.53-1.1-0.94-1.89-1.22c-0.8-0.29-1.54-0.71-2.75-0.71l-3.79 0.03v12.99h3.54c1.2 0 2.44-0.33 3.23-0.62c0.79-0.29 1.18-0.73 1.65-1.28c0.47-0.54 0.8-1.21 0.99-2c0.19-0.78 0.28-1.67 0.28-2.67zm11.35 8.52l-2.02 0.03l0.03-16.92l1.92-0.03l0.06 16.92zm13.18-16.94c1.14 0 2.19 0.21 3.15 0.62c0.96 0.41 1.79 0.98 2.48 1.73c0.7 0.74 1.24 1.63 1.64 2.68c0.39 1.04 0.59 2.2 0.59 3.47c0 1.26-0.2 2.41-0.58 3.46c-0.39 1.04-0.93 1.94-1.62 2.69c-0.69 0.75-1.52 1.33-2.48 1.75c-0.96 0.42-2.02 0.63-3.17 0.63c-1.15 0-2.21-0.21-3.17-0.62c-0.96-0.41-1.79-0.99-2.49-1.74c-0.7-0.74-1.24-1.64-1.63-2.69c-0.39-1.05-0.58-2.21-0.58-3.48c0-1.28 0.19-2.44 0.59-3.49c0.39-1.04 0.94-1.94 1.64-2.68c0.7-0.74 1.53-1.31 2.49-1.72c0.96-0.4 2.01-0.61 3.14-0.61zm-0.01 15.14c0.82 0 1.57-0.15 2.26-0.45c0.69-0.3 1.28-0.73 1.78-1.31c0.5-0.57 0.89-1.27 1.17-2.09c0.28-0.82 0.42-1.76 0.42-2.8c0-1.05-0.14-1.98-0.42-2.8c-0.28-0.82-0.67-1.51-1.17-2.08c-0.5-0.56-1.08-0.99-1.77-1.29c-0.68-0.29-1.42-0.44-2.22-0.44c-0.81 0-1.57 0.15-2.26 0.45c-0.69 0.3-1.29 0.74-1.79 1.3c-0.5 0.57-0.89 1.26-1.17 2.08c-0.28 0.82-0.42 1.74-0.42 2.78c0 1.04 0.14 1.98 0.41 2.8c0.28 0.82 0.66 1.52 1.16 2.09c0.5 0.57 1.09 1 1.77 1.31c0.68 0.3 1.44 0.45 2.25 0.45z" />
		</g>
	</g>
</svg>