<svg version="1.2" baseProfile="tiny-ps" xmlns="http://www.w3.org/2000/svg" viewBox="0 0 146 36" width="146" height="36">
	<title>Clients</title>
	<style>
		tspan { white-space:pre }
		.s0 { fill: #707070 } 
	</style>
	<g id="Clients">
		<g id="Logo Set">
			<path id="Logo 5" class="s0" d="m72.25 30.99l-4.55-0.03l-5.69 0.04c0-0.44-0.02-1.31-0.01-1.76c0.01-0.45 0.05-0.83 0.05-1.26l2.24-0.01h0c0.07 0 0.7-0.03 0.7-0.58l0.05-0.84c-0.04-4.13-0.05-7.96-0.03-12.82l-0.01-0.78l-0.78 0.03h-0.33h-0.29l-0.09 0.28c-2.38 6.83-4.39 11.39-6.24 15.71c-0.25 0-0.57 0.01-0.94 0.01c-0.65 0.01-1.42-0.01-2.11-0.01c-2.07-4.95-3.46-8.23-5.64-14.85l-0.41-1.16h-0.39h-0.37l-0.4-0.03l-0.04 0.47c-0.06 3.69 0.07 5.81 0.03 7.58c-0.05 2.18 0.03 4.34-0.01 6.52l0.06 0.46l0.61 0.02l2.38 0.05c0 0.86-0.07 2.06-0.09 2.94l-5.34 0.03h-4.61l0.03-2.97l2.54-0.07l0.09 0l0.08-0.04c0.29-0.15 0.35-0.37 0.35-0.54c0.03-5.55-0.17-12.08-0.08-18.28l0.04-1.15l-0.49 0.04l-1.57-0.04c0-0.49 0.04-1.44 0.05-1.94c0.01-0.49-0.02-1.51-0.01-1.96l9.93-0.03c1.21 3.29 3.43 11.08 5.23 16.39l0.3 0.89l0.1 0.28h0.29h0.33h0.29l0.1-0.27c0.78-2.21 1.61-4.57 2.44-6.92c1.23-3.5 2.95-7.57 3.96-10.39l9.01 0.03c0 0.45 0.03 1.6 0.02 2.09c-0.01 0.51-0.02 1.33-0.02 1.82l-2.52 0l-0.07 0.03c-0.27 0-0.47 0.62-0.47 0.94c0.02 3.08 0.07 5.77 0.08 9.2c0.01 3.2-0.02 4.92 0 7.94l0.04 1.93l0.55-0.01l2.42 0c0 0.86 0 2.11-0.03 2.99l-0.74 0.03zm27.68-0.04l-4.32 0.04h-6.59c0-0.9-0.03-2.06-0.01-2.96l1.96-0.1c0.15 0 0.31-0.09 0.42-0.23c0.11-0.15 0.13-0.34 0.07-0.52c-0.07-0.22-0.16-0.52-0.27-0.85c-0.19-0.62-0.4-1.33-0.57-1.75c-0.04-0.18-0.21-0.62-0.67-0.62l-7.64 0.02l-0.32 0.22l-0.07 0.32c-0.08 0.36-0.18 0.77-0.29 1.17c-0.16 0.62-0.32 1.26-0.42 1.79l-0.09 0.46l0.47 0.03l2.4 0.06c0 0.88-0.04 2.06-0.07 2.96h-5.82h-4.11c0.01-0.9 0.11-2.09 0.15-2.96l1.84-0.06c0.24 0 0.52-0.21 0.61-0.49c2.64-7.04 6.25-17.21 8.54-23.46c0.83-0.06 2.57-0.03 5.07-0.03c1.32 3.86 2.9 8.92 4.42 13.47c1.22 3.67 2.41 7.24 3.41 10.18l0.09 0.26l0.27 0.02l1.65 0.14c0 0.88-0.02 1.45-0.04 2.35l-0.06 0.54zm-14.03-19.72l-0.09 0.29c-0.57 1.86-1.17 3.8-1.74 5.66l-0.79 1.83c-0.04 0.14-0.38 2.07-0.22 2.28l0.03-0.31h0.54h5.31l0.69 0.03l-0.67-2.04c-0.59-1.86-0.55-2.05-1.21-4.27c-0.32-1.06-0.63-2.13-0.95-3.19l-0.09-0.29h-0.3h-0.2h-0.3v0zm31.31 18.23c-0.94-1.71-1.83-3.95-2.75-6.14l-0.37-0.87c-0.57-1.37-1.11-2.51-2.3-2.51c-0.49 0-1.2-0.06-1.39 0.01l-0.27 0.66l-0.13 0.29l-0.05 6.56l0.12 0.52l0.39 0.02l2.52-0.02c-0.02 0.89-0.03 2.1-0.03 2.99l-6.09 0.03l-4.82-0.06c0.02-0.89 0-2.07 0-2.96l1.58 0.02c0.3 0 0.51-0.28 0.51-0.54l-0.18-17.52l0.03-1.96l-0.3-0.02l-1.65-0.04c0-0.92-0.02-3.04 0-3.94c3.6-0.05 6.54-0.02 9.08-0.02c2.31 0 3.58 0.56 5.97 1.13c3.45 0.76 5.87 3.89 5.87 6.32c0 3.06-2.06 5.53-5.15 6.81l-0.25 0.11v0.27v0.25v0.26l0.23 0.11c1.52 0.73 2.45 2.68 3.99 5.89l0.49 1.02c0.41 0.93 0.79 1.66 1.57 1.73l1.08 0.17c0 0.43 0.08 0.94 0.07 1.38c-0.01 0.45-0.02 1.06-0.02 1.51c-0.32 0.01-0.28-0.02-0.66-0.01c-0.57 0.01-0.8 0.02-1.19 0.02c-0.47 0-1.71 0.01-2.84 0.02c-0.87 0.01-1.74-0.05-2.22-0.04l-0.84-1.47zm-5.27-22.38c-0.72 0-1.14 0.04-1.45 0.14l-0.28 0.09l-0.28 0.33l0.08 9.64l0.12 0.45l0.32 0.23c0.22 0.05 0.59 0.05 1.21 0.05c2.91 0 4.74-2.21 4.74-5.26c0-3.19-1.96-5.69-4.46-5.69v0zm22.23 23.83c-1.43 0-4.29 0.09-6.05-0.47c-0.28-2.24-0.53-4.45-0.78-6.62l-0.27-0.47c1.22-0.26 2.71-0.48 3.81-0.62l1.06 3.77c0.1 0.32 0.25 0.52 0.43 0.62c0.78 0.55 1.8 0.88 2.94 0.88c0.98 0 2.32-0.28 3.15-0.96c0.75-0.6 1.14-1.48 1.14-2.56c0-2.4-1.32-2.89-4.52-4.08c-4.73-1.78-7.12-4.41-7.12-7.79c0-3.02 1.67-4.98 2.67-5.88c1.8-1.65 4.83-2.74 8.52-2.74c2.33 0 4.21 0.5 5.11 0.82c0.22 2.29 0.63 4.66 0.79 6.99c-1.04 0.15-2.43 0.26-3.57 0.39l-0.16 0.02l-0.86-3.51c-0.06-0.18-0.12-0.34-0.27-0.49c-0.59-0.5-1.46-1.13-2.35-1.13c-1.08 0-1.99 0.62-2.72 1.17c-0.39 0.3-1.28 1.16-1.28 2.7c0 2.36 1.11 2.86 4.98 4.21c4.67 1.61 6.66 3.83 6.66 7.42c0 2.55-1.06 4.86-2.9 6.32c-1.95 1.56-4.45 2.03-8.27 2.03h-0.13zm-118.34-23.34c0 4.21-3.39 7.62-7.57 7.62c-4.18 0-7.57-3.41-7.57-7.62c0-4.21 3.39-7.61 7.57-7.61c4.18 0 7.57 3.41 7.57 7.61zm0 20.19c0 4.21-3.39 7.62-7.57 7.62c-4.18 0-7.57-3.41-7.57-7.62c0-4.2 3.39-7.62 7.57-7.62c4.18 0 7.57 3.41 7.57 7.62zm16.47-10.09c0 4.21-3.39 7.61-7.57 7.61c-4.18 0-7.57-3.41-7.57-7.61c0-4.21 3.39-7.62 7.57-7.62c4.18 0 7.57 3.41 7.57 7.62z" />
		</g>
	</g>
</svg>