<svg version="1.2" baseProfile="tiny-ps" xmlns="http://www.w3.org/2000/svg" viewBox="0 0 104 59" width="104" height="59">
	<title>Landing Page</title>
	<style>
		tspan { white-space:pre }
		.t0 { font-size: 9px;fill: #ffffff;font-weight: 700;font-family: "Oswald-Bold", "Oswald" } 
		.t1 { font-size: 30px;fill: #ffffff;font-weight: 700;font-family: "Oswald-Bold", "Oswald" } 
		.s2 { fill: #ffe600 } 
	</style>
	<g id="Landing Page">
		<g id="Header">
			<g id="Logo">
				<text id="THEME" style="transform: matrix(1,0,0,1,42.744,58.301)" >
					<tspan x="0" y="0" class="t0" dx="0 9 9 9 9 9" >THEME
</tspan>
				</text>
				<text id="MAK" style="transform: matrix(1,0,0,1,41.382,50.228)" >
					<tspan x="0" y="0" class="t1" dx="0 3 3 3" >MAK
</tspan>
				</text>
				<path id="S Shape" class="s2" d="m37.7 47.73c0 3.02-1.1 5.54-3.27 7.47c-2.14 1.91-4.76 2.87-7.8 2.87c-1.96 0-3.72-0.37-5.26-1.1c-1.55-0.73-2.82-1.75-3.77-3.02c-0.93-1.23-1.65-2.61-2.14-4.09c-0.49-1.47-0.78-3.07-0.86-4.76l-0.04-0.82l0.81-0.16l8.06-1.55l1.13-0.22v1.15c0 0.79 0.02 1.49 0.04 2.07c0.03 0.57 0.1 1.21 0.22 1.88c0.11 0.64 0.25 1.15 0.43 1.53c0.15 0.33 0.36 0.6 0.63 0.82c0.22 0.18 0.46 0.26 0.77 0.26c0.53 0 1.41 0 1.41-2.07c0-2.46-1.46-4.98-4.33-7.5l-2.46-2.09c-0.78-0.65-1.43-1.21-1.91-1.67c-0.49-0.46-1.07-1.08-1.72-1.85c-0.68-0.79-1.22-1.58-1.61-2.33c-0.03-0.06-0.06-0.13-0.09-0.19l-0.15 0.21l-11.45-5.44c0 0-0.49-0.41 0.15-0.45c0.64-0.04 4.83 1.15 6.4 1.09c0.87-0.07 2.37-0.53 1.52-2.2c-0.68-1.09-1.77-2.22-4.23-3.86c-0.24-0.13-0.43-0.7 0.3-0.45c0.73 0.24 4.66 2.44 6.24 1.84c0.1-0.05 0.25-0.16 0.42-0.3c0.2-0.69 0.46-1.34 0.79-1.95c-0.03-0.62-0.25-1.37-0.81-2.29c-1.82-2.95-3.37-5.17-4.87-7.24c-0.07-0.22-0.04-0.39 0.09-0.37c0.07-0.01 0.16 0 0.27 0.03c2.07 1.5 4.29 3.05 7.24 4.87c0.96 0.59 1.74 0.81 2.37 0.81c0.58-0.31 1.2-0.57 1.85-0.79c0.15-0.16 0.26-0.32 0.31-0.42c0.6-1.58-1.6-5.51-1.84-6.24c-0.24-0.73 0.32-0.55 0.45-0.3c1.64 2.46 2.77 3.55 3.86 4.23c1.67 0.85 2.13-0.66 2.2-1.52c0.06-1.56-1.13-5.75-1.09-6.39c0.04-0.64 0.45-0.15 0.45-0.15l5.4 11.37c0.96 0.51 1.84 1.18 2.66 2.01c2.12 2.16 3.2 4.79 3.2 7.83v0.03l-0.01 0.04l-0.02 0.24v0.63v0.83l-0.82 0.11l-8.22 1.14l-1.08 0.15v-1.09c0-0.17 0.01-0.44 0.04-0.81c0.02-0.32 0.03-0.58 0.03-0.78c0-0.47-0.03-0.93-0.1-1.37c-0.06-0.42-0.17-0.85-0.32-1.27c-0.11-0.32-0.27-0.55-0.48-0.72c-0.18-0.15-0.39-0.21-0.67-0.21c-0.54 0-0.91 0.18-1.17 0.59c-0.34 0.53-0.51 1.16-0.51 1.92c0 0.7 0.11 1.37 0.33 1.97c0.21 0.6 0.55 1.18 0.99 1.71c0.49 0.59 0.94 1.08 1.35 1.46c0.42 0.39 0.99 0.88 1.7 1.45c0.76 0.61 1.28 1.05 1.59 1.33c1.14 1 2.12 1.97 2.91 2.86c0.81 0.9 1.57 1.94 2.28 3.07c0.73 1.17 1.29 2.45 1.65 3.8c0.36 1.34 0.55 2.81 0.55 4.35zm-35.17-23.77c0.6 0.6 0.6 1.58 0 2.18c-0.6 0.6-1.58 0.6-2.18 0c-0.6-0.6-0.6-1.58 0-2.18c0.6-0.6 1.58-0.6 2.18 0zm2.5-3.1c-0.6-0.6-0.6-1.58 0-2.18c0.6-0.6 1.58-0.6 2.18 0c0.6 0.6 0.6 1.58 0 2.18c-0.6 0.6-1.58 0.6-2.18 0zm13.18-12.85c-0.6-0.6-0.6-1.58 0-2.18c0.6-0.6 1.58-0.6 2.18 0c0.6 0.6 0.6 1.58 0 2.18c-0.6 0.6-1.58 0.6-2.18 0zm5.53-4.55c-0.6-0.6-0.6-1.58 0-2.18c0.6-0.6 1.58-0.6 2.18 0c0.6 0.6 0.6 1.58 0 2.18c-0.6 0.6-1.58 0.6-2.18 0zm-16.65 6.79c-0.6-0.6-0.6-1.58 0-2.18c0.6-0.6 1.58-0.6 2.18 0c0.6 0.6 0.6 1.58 0 2.18c-0.6 0.6-1.58 0.6-2.18 0z" />
			</g>
		</g>
	</g>
</svg>