<svg version="1.2" baseProfile="tiny-ps" xmlns="http://www.w3.org/2000/svg" viewBox="0 0 164 40" width="164" height="40">
	<title>Clients</title>
	<style>
		tspan { white-space:pre }
		.s0 { fill: #707070 } 
	</style>
	<g id="Clients">
		<g id="Logo Set">
			<path id="Logo 4" class="s0" d="m62.69 11.51c1.36 1.44 2.24 3.06 2.24 5.2l0.06 9.53l0.06 1.79l-1.02-0.06l-3.02-0.06l-0.05-0.06v-1.17l0.03-9.72c0-1.16-0.56-2.08-1.21-2.8c-0.61-0.65-1.38-0.97-2.34-0.97c-1.05 0-1.89 0.32-2.58 0.98c-0.73 0.68-1.08 1.61-1.08 2.83l0.19 9.68v1.29h-0.98l-2.46 0.03l-0.46-0.06v-1.23l-0.06-9.78c0-1.16-0.53-2.05-1.18-2.77c-0.61-0.65-1.38-0.97-2.34-0.97c-1.04 0-1.89 0.32-2.58 0.98c-0.73 0.68-0.89 1.64-0.89 2.86l-0.06 9.71v1.2l-0.89 0.03l-2.46 0.06l-0.55-0.05l-0.06-1.09l0.03-16.04l-0.06-0.73l0.83-0.12l2.21 0.03l0.89-0.03l-0.06 0.48v0.39c1.12-0.93 2.56-1.87 4.25-1.87c1.23 0 2.36 0.8 3.41 1.44c0.7 0.43 1.3 0.99 1.8 1.65c0.8-0.99 1.87-1.73 3.18-2.22c0.72-0.27 1.5-0.87 2.39-0.87c0.9 0 1.8 0.65 2.63 1c0.82 0.35 1.56 0.86 2.2 1.52zm18.46 0.62c1.58 1.7 1.81 3.8 1.81 6.38c0 2.58-0.23 4.81-1.81 6.5c-1.68 1.78-3.88 2.96-6.54 2.96c-2.66 0-4.86-1.18-6.53-2.95c-1.58-1.7-2.12-3.86-2.12-6.44c0-2.58 0.55-4.75 2.12-6.44c1.68-1.77 3.84-3.17 6.5-3.17c2.66 0 4.89 1.4 6.56 3.17zm-2.92 10.3c-0.88 1.04-2.07 1.54-3.61 1.54c-1.55 0-2.73-0.51-3.61-1.55c-0.87-1.01-1.98-2.21-1.98-3.79c0-1.58 1.11-2.9 1.99-3.92c0.88-1.04 2.03-1.76 3.58-1.76c1.55 0 2.76 0.72 3.65 1.77c0.87 1.01 1.79 2.3 1.79 3.88c0 1.58-0.92 2.81-1.8 3.82zm21.74-10.3c1.58 1.7 2 3.89 2 6.48c0 2.58-0.42 4.72-1.99 6.41c-1.68 1.78-3.91 2.96-6.57 2.96c-2.66 0-4.82-1.18-6.5-2.95c-1.57-1.7-1.9-3.86-1.9-6.44c0-2.58 0.33-4.75 1.9-6.44c1.68-1.77 3.88-3.17 6.53-3.17c2.66 0 4.86 1.4 6.53 3.17zm-2.92 10.3c-0.88 1.04-2.06 1.54-3.61 1.54c-1.55 0-2.73-0.51-3.61-1.55c-0.87-1.01-1.86-2.27-1.86-3.85c0-1.58 0.98-2.84 1.86-3.85c0.88-1.04 2.06-1.73 3.61-1.73c1.55 0 2.73 0.69 3.62 1.74c0.87 1.01 1.95 2.27 1.95 3.85c0 1.58-1.08 2.84-1.95 3.85zm20.31-10.92c1.49 1.44 2.65 2.82 2.65 5.18l0.03 9.52l-0.03 1.7l-0.96-0.03l-3.02 0.09l-0.02-0.03l-0.03-1.13v-9.49c0-1.3-0.72-2.29-1.44-3.04c-0.71-0.74-1.61-1.28-2.76-1.28c-1.18 0-2.16 0.57-2.98 1.34c-0.81 0.78-0.83 1.8-0.83 3.05l-0.03 9.26l-0.06 1.29h-0.99l-1.74 0.03l-1.17-0.03l0.06-1.01l-0.03-15.79l0.06-2.07l0.89-0.06h2.02l0.92-0.03l0.09 0.04l-0.06 2.07c0.31-0.26 0.29-0.47 0.64-0.69c0.97-0.62 2.1-1.4 3.33-1.4c1.18 0 2.22 0.64 3.1 0.97c0.89 0.34 1.68 0.86 2.34 1.54zm19.2 0.63c1.59 1.73 2.42 3.9 2.42 6.43c0 2.54-0.84 4.7-2.43 6.44c-1.61 1.77-3.78 2.96-6.47 2.96c-1.96 0-3.84-0.87-5.16-1.98l0.03 6.84l-0.03 1.13l-0.39-0.03l-2.59 0.06l-0.95 0.03v-0.88v-22.39v-1.76h0.92h2.46l0.61 0.03l-0.03 1.32l0.06 0.82c1.34-1.09 3.17-2.18 5.23-2.18c2.58 0 4.7 1.37 6.31 3.15zm-10.25 10.29c-0.87-1.01-1.29-2.27-1.29-3.85c0-1.58 0.42-2.84 1.3-3.85c0.89-1.04 2.07-1.76 3.61-1.76c1.53 0 2.74 0.73 3.69 1.78c0.91 1.01 1.35 2.27 1.35 3.84c0 1.57-0.44 2.83-1.35 3.84c-0.95 1.05-2.16 1.56-3.69 1.56c-1.55 0-2.73-0.51-3.61-1.55zm17.49-12.46l0.17 0.09v2.63v11.63v2.64l-0.54 0.06l-1.68-0.03l-0.73-0.06l0.03-0.73l-0.03-13.73l0.03-2.51l0.73 0.03l2.03-0.03zm0.13-5.9l0.05 0.03v0.44l-0.03 2.2l0.09 1.26l-0.8 0.03l-1.66-0.09l-0.55 0.03v-0.89v-2.17v-0.94h0.58l2.31 0.09zm18.93 16.88l1.13 0.06l-0.4 0.79c-0.55 1.75-1.57 3.18-3.03 4.24c-1.53 1.09-3.36 1.89-5.44 1.89c-2.62 0-4.78-1.15-6.43-2.93c-1.59-1.71-2.68-3.88-2.68-6.44c0-2.56 1.09-4.73 2.68-6.44c1.65-1.77 3.73-3.17 6.34-3.17c2.08 0 4 1.05 5.53 2.13c1.47 1.07 2.49 2.5 3.04 4.25l0.28 0.64l-1.01 0.03h-2.69l-0.59 0.03l-0.1-0.2c-0.32-0.8-0.82-1.43-1.51-1.93c-0.68-0.49-1.45-0.73-2.34-0.73c-0.94 0-1.73 0.14-2.36 0.42c-0.63 0.28-1.17 0.66-1.59 1.14c-0.95 1.04-1.7 2.29-1.7 3.84c0 1.55 0.74 2.8 1.69 3.83c0.95 1.06 2.25 1.57 3.96 1.57c0.89 0 1.66-0.24 2.34-0.73c0.7-0.5 1.19-1.14 1.51-1.94l0-0.26l0.74-0.03l2.63-0.06zm-30.92 16.44c-0.32 0.37-0.69 0.56-1.13 0.56c-0.26 0-0.5-0.05-0.7-0.14c-0.2-0.1-0.37-0.23-0.51-0.41c-0.14-0.18-0.24-0.39-0.31-0.63c-0.07-0.25-0.11-0.52-0.11-0.82c0-0.32 0.04-0.61 0.13-0.87c0.08-0.26 0.2-0.48 0.35-0.65c0.15-0.18 0.33-0.32 0.53-0.41c0.2-0.1 0.42-0.14 0.66-0.14c0.21 0 0.41 0.03 0.59 0.1c0.18 0.07 0.35 0.17 0.5 0.3v-1.79h0.7v5.39h-0.7v-0.46zm0-0.66v-1.85c-0.31-0.32-0.66-0.47-1.04-0.47c-0.3 0-0.54 0.13-0.72 0.38c-0.18 0.26-0.27 0.64-0.27 1.15c0 0.48 0.08 0.84 0.25 1.09c0.17 0.25 0.4 0.37 0.7 0.37c0.2 0 0.38-0.05 0.56-0.17c0.18-0.11 0.35-0.28 0.51-0.51zm6.45 1.22c-0.29 0-0.55-0.05-0.79-0.14c-0.24-0.09-0.44-0.23-0.61-0.4c-0.17-0.18-0.3-0.39-0.39-0.64c-0.09-0.25-0.14-0.54-0.14-0.86c0-0.32 0.04-0.6 0.13-0.85c0.09-0.25 0.22-0.47 0.38-0.64c0.16-0.18 0.36-0.31 0.59-0.41c0.23-0.09 0.48-0.14 0.75-0.14c0.28 0 0.54 0.05 0.77 0.14c0.23 0.09 0.42 0.23 0.59 0.4c0.16 0.18 0.29 0.39 0.37 0.64c0.09 0.25 0.13 0.54 0.13 0.86v0.17h-2.97c0.01 0.23 0.06 0.42 0.12 0.59c0.06 0.17 0.15 0.3 0.26 0.41c0.11 0.11 0.23 0.19 0.37 0.24c0.14 0.06 0.29 0.08 0.45 0.08c0.12 0 0.23-0.01 0.35-0.05c0.12-0.03 0.22-0.08 0.31-0.14c0.09-0.06 0.17-0.13 0.22-0.22c0.06-0.09 0.09-0.19 0.09-0.31h0.74c-0.03 0.2-0.09 0.38-0.19 0.54c-0.1 0.16-0.22 0.29-0.37 0.39c-0.15 0.11-0.32 0.19-0.52 0.24c-0.2 0.06-0.41 0.09-0.63 0.09zm1.04-2.42c-0.06-0.37-0.18-0.65-0.38-0.83c-0.2-0.19-0.44-0.28-0.73-0.28c-0.14 0-0.27 0.02-0.4 0.07c-0.12 0.05-0.23 0.12-0.33 0.21c-0.1 0.09-0.18 0.21-0.24 0.35c-0.07 0.14-0.11 0.3-0.14 0.49h2.22zm5.52 2.42c-1.07 0-1.64-0.42-1.7-1.26h0.71c0 0.47 0.33 0.71 0.98 0.71c0.15 0 0.28-0.01 0.39-0.05c0.11-0.03 0.2-0.07 0.28-0.13c0.07-0.06 0.13-0.12 0.17-0.2c0.04-0.07 0.06-0.16 0.06-0.25c0-0.09-0.01-0.17-0.04-0.22c-0.03-0.06-0.09-0.11-0.17-0.15c-0.08-0.04-0.2-0.09-0.35-0.13c-0.15-0.04-0.34-0.09-0.58-0.16c-0.23-0.06-0.44-0.12-0.6-0.17c-0.17-0.06-0.31-0.13-0.42-0.21c-0.11-0.08-0.19-0.18-0.24-0.3c-0.05-0.12-0.08-0.27-0.08-0.45c0-0.16 0.03-0.31 0.1-0.45c0.07-0.14 0.17-0.26 0.3-0.36c0.13-0.1 0.28-0.18 0.46-0.24c0.18-0.06 0.38-0.09 0.61-0.09c1.04 0 1.56 0.37 1.58 1.09h-0.69c-0.03-0.37-0.3-0.55-0.83-0.55c-0.12 0-0.23 0.01-0.33 0.04c-0.1 0.02-0.19 0.06-0.26 0.1c-0.08 0.04-0.13 0.1-0.17 0.16c-0.04 0.06-0.06 0.14-0.06 0.22c0 0.07 0.01 0.14 0.03 0.19c0.02 0.05 0.06 0.09 0.14 0.14c0.07 0.04 0.18 0.08 0.33 0.12c0.14 0.04 0.34 0.09 0.59 0.15c0.24 0.06 0.45 0.12 0.62 0.18c0.18 0.06 0.32 0.13 0.44 0.22c0.12 0.09 0.21 0.19 0.26 0.32c0.06 0.13 0.08 0.28 0.08 0.47c0 0.18-0.04 0.34-0.11 0.49c-0.08 0.15-0.18 0.28-0.32 0.39c-0.14 0.11-0.3 0.2-0.5 0.26c-0.2 0.06-0.42 0.09-0.66 0.09zm5.45-4.73h-0.7v-0.75h0.7v0.75zm0 4.63h-0.7v-3.9h0.7v3.9zm6.93-0.3c0 1.26-0.57 1.88-1.72 1.88c-0.25 0-0.47-0.03-0.67-0.08c-0.2-0.06-0.37-0.13-0.51-0.23c-0.14-0.1-0.24-0.23-0.32-0.38c-0.07-0.15-0.11-0.31-0.11-0.5h0.73c0 0.43 0.29 0.65 0.86 0.65c0.17 0 0.32-0.02 0.45-0.06c0.13-0.04 0.24-0.11 0.32-0.21c0.09-0.1 0.16-0.24 0.2-0.41c0.05-0.17 0.07-0.38 0.07-0.64v-0.19c-0.32 0.37-0.7 0.56-1.13 0.56c-0.27 0-0.5-0.05-0.7-0.14c-0.2-0.1-0.37-0.23-0.51-0.41c-0.14-0.18-0.24-0.39-0.31-0.63c-0.07-0.25-0.11-0.52-0.11-0.82c0-0.32 0.04-0.61 0.13-0.87c0.09-0.26 0.2-0.48 0.35-0.65c0.15-0.18 0.33-0.32 0.53-0.41c0.2-0.1 0.42-0.14 0.66-0.14c0.22 0 0.41 0.03 0.59 0.1c0.18 0.07 0.35 0.17 0.5 0.3v-0.3h0.7v3.59zm-0.7-0.82v-1.85c-0.32-0.32-0.66-0.47-1.05-0.47c-0.3 0-0.54 0.13-0.72 0.38c-0.18 0.26-0.27 0.64-0.27 1.15c0 0.48 0.08 0.84 0.25 1.09c0.17 0.25 0.41 0.37 0.71 0.37c0.19 0 0.38-0.05 0.56-0.17c0.18-0.11 0.35-0.28 0.51-0.51zm4.7-2.28c0.17-0.2 0.36-0.35 0.56-0.44c0.2-0.1 0.41-0.15 0.62-0.15c0.89 0 1.34 0.48 1.34 1.44v2.55h-0.71v-2.52c0-0.16-0.01-0.3-0.04-0.41c-0.03-0.12-0.07-0.21-0.13-0.28c-0.06-0.07-0.13-0.12-0.23-0.16c-0.09-0.03-0.2-0.05-0.33-0.05c-0.36 0-0.72 0.21-1.08 0.62v2.79h-0.7v-3.9h0.7v0.49zm-156.24-5.91c-0.47-0.17-0.93-0.36-1.38-0.56c-2.03-2.84-3.22-6.31-3.22-10.05c0-9.66 7.93-17.49 17.71-17.49c5.15 0 9.78 2.17 13.02 5.64c-1.64-0.4-3.35-0.62-5.09-0.62c-1.56 0-3.15 0.17-4.74 0.53c-5 1.13-8.39 5.49-8.45 10.34c-0.16 0.51-0.24 1.05-0.24 1.6c0 3 2.47 5.44 5.51 5.44c0.6 0 1.18-0.1 1.73-0.28c0.02-0.01 0.05-0.01 0.08-0.01c-0.02 0.06-0.04 0.12-0.06 0.18c-1.52 4.16-5.8 6.88-10.44 6.32c-1.53-0.19-3.01-0.54-4.41-1.04zm24.73-12.62c-2.57-3.31-6.88-4.52-10.69-3.35c1.41 0.24 2.63 1 3.45 2.08c0.19 0.15 0.39 0.3 0.58 0.47c3.65 3.32 4.63 8.79 2.06 13.23c-0.81 1.39-1.76 2.67-2.82 3.8c-1.17 1.26-2.48 2.35-3.89 3.26c6.68-0.12 12.46-3.9 15.37-9.39c-0.22-2.14-0.79-4.25-1.72-6.26c-0.62-1.33-1.4-2.62-2.35-3.84zm2.59-8.43c-2-0.65-4.12-1.01-6.29-1.01c-1.49 0-3 0.16-4.51 0.5c-3.74 0.84-6.48 3.69-7.35 7.12c0.45-0.45 0.98-0.82 1.56-1.09c0.54-0.37 1.1-0.69 1.68-0.95c4.51-2.04 10-0.82 13.15 3.22c0.99 1.28 1.81 2.63 2.47 4.03c0.74 1.6 1.26 3.26 1.58 4.94c0.77-1.97 1.2-4.1 1.2-6.34c0-3.91-1.3-7.52-3.49-10.43zm-10.77 23.95c1.01-1.08 1.91-2.29 2.67-3.62c2.01-3.46 1.61-7.63-0.66-10.63c0.03 0.24 0.06 0.48 0.06 0.73c0 1.78-0.87 3.35-2.21 4.35c-0.07 0.07-0.15 0.13-0.22 0.19c-0.09 0.39-0.21 0.77-0.35 1.14c-1.69 4.61-6.42 7.62-11.55 6.99c-1.52-0.18-2.97-0.53-4.36-1c2.91 3.2 7 5.34 11.59 5.74c1.85-1.01 3.55-2.32 5.03-3.9z" />
		</g>
	</g>
</svg>