<svg version="1.2" baseProfile="tiny-ps" xmlns="http://www.w3.org/2000/svg" viewBox="0 0 151 42" width="151" height="42">
	<title>Clients</title>
	<style>
		tspan { white-space:pre }
		.s0 { fill: #707070 } 
	</style>
	<g id="Clients">
		<g id="Logo Set">
			<path id="Logo 3" class="s0" d="m146.3 27.35c-2.33 0-4.23-1.92-4.23-4.28c0-2.36 1.9-4.28 4.23-4.28c2.33 0 4.23 1.92 4.23 4.28c0 2.36-1.9 4.28-4.23 4.28zm0-8c-2.03 0-3.69 1.67-3.69 3.73c0 2.05 1.66 3.72 3.69 3.72c2.03 0 3.69-1.67 3.69-3.72c0-2.06-1.66-3.73-3.69-3.73zm-1.5 1.46c0.33-0.06 0.84-0.1 1.4-0.1c0.69 0 1.17 0.1 1.5 0.37c0.28 0.22 0.43 0.55 0.43 0.98c0 0.6-0.42 1.01-0.82 1.15v0.02c0.33 0.13 0.51 0.44 0.62 0.88c0.14 0.53 0.29 1.14 0.38 1.33h-1.08c-0.08-0.14-0.19-0.52-0.32-1.09c-0.12-0.58-0.32-0.74-0.75-0.75h-0.32v1.85h-1.04v-4.63zm1.04 2.02h0.41c0.53 0 0.84-0.27 0.84-0.68c0-0.43-0.29-0.65-0.77-0.66c-0.26 0-0.4 0.02-0.47 0.03v1.3zm-134.19 19.07l0.02-0.03h-11.99c0 0 1.63-0.7 2.93-1.13c0.39-0.13 0.64-0.28 0.81-0.43c-0.76-0.82-1.24-1.92-1.24-3.14c0-2.54 2.04-4.61 4.56-4.61c0.9 0 1.74 0.27 2.45 0.73c-0.2 0.58-0.34 1.18-0.34 1.79c0 1.33 0.57 2.53 1.48 3.5c-0.47-0.86-0.76-1.84-0.76-2.89c0-3.36 2.7-6.09 6.03-6.09c3.33 0 6.02 2.73 6.02 6.09c0 0.99-0.26 1.91-0.67 2.74c0.83-0.94 1.32-2.09 1.32-3.35c0-0.93-0.3-1.84-0.79-2.69c0.38-0.1 0.77-0.18 1.18-0.18c2.27 0 4.13 1.72 4.42 3.94c-1.18 0.48-2.12 1.49-2.6 2.78l0.19 0.02c0.78-1.31 2.19-2.19 3.82-2.19c2.1 0 3.85 1.47 4.33 3.44c0.15 0.18 0.43 0.39 0.95 0.56c1.29 0.43 2.93 1.13 2.93 1.13h-25.05zm7.77-20.92c0 0-1.58 0.93-2.68 0.93v0h-0.01h-0.01v0c-0.77 0.02-2.68-0.93-2.68-0.93c0 0 0 0-3.67 1.45c0.23-3.07 1.78-4.93 3.1-7.3c-0.98-11.48 3.05-14.33 3.05-14.33c0 0 4.45 2.85 3.48 14.33c1.32 2.38 2.87 4.23 3.1 7.3c-3.67-1.45-3.67-1.45-3.67-1.45zm0 0c0 0-1.58 0.93-2.68 0.93v0h-0.01h-0.01v0c-0.77 0.02-2.68-0.93-2.68-0.93c0 0 0 0-3.67 1.45c0.23-3.07 1.78-4.93 3.1-7.3c-0.98-11.48 3.05-14.33 3.05-14.33c0 0 4.45 2.85 3.48 14.33c1.32 2.38 2.87 4.23 3.1 7.3c-3.67-1.45-3.67-1.45-3.67-1.45zm-1.37 3.36l0.66 4.21l-1.11-1.05v0c-0.09-0.02-0.23 0.58-0.32 0.58c-0.07 0-0.31 0.64-0.38 0.65c-0.07-0.01-0.2-0.65-0.27-0.65c-0.09 0-0.23-0.6-0.32-0.58v0l-1.11 1.05l0.66-4.21l-1.06 1.15l0.93-2.72c0.26 0.21 0.96 0.62 1.22 0.64c0.27-0.02 0.95-0.43 1.21-0.64l0.93 2.72l-1.06-1.15zm27.55 17.22h-3.2l3.64-17.75h4.76c0.76 0 1.41 0.03 1.96 0.08c0.55 0.05 1.03 0.14 1.44 0.27c1.16 0.34 2 0.87 2.54 1.59c0.54 0.73 0.81 1.58 0.81 2.56c0 0.72-0.1 1.39-0.3 2.02c-0.2 0.63-0.51 1.19-0.93 1.7c-0.43 0.51-0.97 0.94-1.63 1.31c-0.66 0.37-1.46 0.66-2.38 0.87v0.05l3.9 7.3h-3.55l-3.52-6.87h-2.13l-1.4 6.87zm1.97-9.59h1.23c0.59 0 1.11-0.02 1.58-0.06c0.46-0.04 0.88-0.11 1.25-0.22c0.83-0.23 1.49-0.6 1.97-1.12c0.48-0.52 0.72-1.19 0.72-2.01c0-0.43-0.09-0.8-0.29-1.11c-0.19-0.32-0.51-0.55-0.95-0.7c-0.21-0.07-0.48-0.13-0.81-0.16c-0.34-0.04-0.75-0.05-1.25-0.05h-2.34l-1.12 5.44zm20.86-8.49c1.02 0 1.95 0.14 2.79 0.43c0.84 0.29 1.55 0.72 2.15 1.29c0.6 0.57 1.05 1.28 1.38 2.12c0.32 0.84 0.49 1.82 0.49 2.92c0 0.69-0.07 1.45-0.22 2.29c-0.15 0.84-0.38 1.69-0.7 2.55c-0.32 0.87-0.74 1.71-1.26 2.52c-0.52 0.82-1.14 1.54-1.88 2.18c-0.74 0.63-1.6 1.14-2.58 1.53c-0.98 0.38-2.1 0.58-3.35 0.58c-1.02 0-1.96-0.14-2.79-0.43c-0.84-0.29-1.55-0.72-2.14-1.29c-0.6-0.57-1.06-1.28-1.38-2.12c-0.33-0.84-0.49-1.82-0.49-2.93c0-0.69 0.07-1.45 0.21-2.3c0.14-0.84 0.38-1.69 0.7-2.55c0.33-0.86 0.74-1.7 1.26-2.52c0.52-0.82 1.14-1.54 1.88-2.18c0.74-0.63 1.6-1.14 2.58-1.52c0.98-0.39 2.1-0.58 3.35-0.58zm-0.22 2.75c-0.71 0-1.36 0.12-1.96 0.37c-0.6 0.25-1.14 0.59-1.62 1.02c-0.49 0.43-0.91 0.93-1.29 1.51c-0.37 0.57-0.69 1.19-0.93 1.84c-0.25 0.65-0.44 1.33-0.56 2.04c-0.13 0.7-0.19 1.39-0.19 2.06c0 0.67 0.09 1.26 0.26 1.77c0.18 0.51 0.43 0.94 0.75 1.28c0.33 0.34 0.73 0.6 1.2 0.77c0.47 0.17 1 0.26 1.59 0.26c0.71 0 1.36-0.13 1.96-0.37c0.6-0.25 1.14-0.59 1.62-1.02c0.49-0.43 0.92-0.93 1.29-1.5c0.37-0.58 0.68-1.19 0.93-1.84c0.25-0.66 0.44-1.34 0.56-2.04c0.13-0.7 0.19-1.39 0.19-2.07c0-1.34-0.34-2.36-1.02-3.05c-0.68-0.69-1.61-1.04-2.79-1.04zm19.5 0c-0.75 0-1.46 0.11-2.11 0.33c-0.66 0.22-1.25 0.53-1.77 0.91c-0.52 0.39-0.98 0.85-1.36 1.38c-0.39 0.53-0.72 1.11-0.98 1.73c-0.26 0.62-0.46 1.28-0.59 1.96c-0.13 0.69-0.2 1.38-0.2 2.07c0 0.9 0.12 1.63 0.36 2.22c0.24 0.59 0.57 1.05 0.99 1.39c0.42 0.34 0.91 0.58 1.48 0.71c0.57 0.14 1.17 0.21 1.81 0.21c0.7 0.01 1.42-0.06 2.16-0.19c0.74-0.13 1.48-0.33 2.23-0.59l-0.58 2.87c-0.71 0.25-1.47 0.42-2.28 0.52c-0.81 0.1-1.55 0.15-2.21 0.15c-1.06 0-2.03-0.14-2.91-0.41c-0.88-0.27-1.63-0.69-2.26-1.25c-0.63-0.56-1.12-1.29-1.47-2.17c-0.35-0.88-0.53-1.94-0.53-3.16c0-0.87 0.09-1.75 0.26-2.65c0.17-0.9 0.43-1.77 0.79-2.62c0.35-0.84 0.8-1.64 1.34-2.39c0.54-0.75 1.18-1.4 1.92-1.96c0.74-0.56 1.61-1 2.59-1.32c0.98-0.32 2.04-0.48 3.18-0.48c0.62 0 1.33 0.06 2.13 0.17c0.8 0.12 1.55 0.29 2.24 0.52l-0.54 2.65c-0.66-0.19-1.27-0.34-1.85-0.44c-0.58-0.1-1.19-0.15-1.82-0.15zm4.39 15.33l3.64-17.75h3.2l-1.62 7.89h0.05l7.27-7.89h3.97l-8.39 8.93l5.58 8.82h-3.69l-5.08-8.2h-0.05l-1.68 8.2h-3.21zm19.4-2.72h8.28l-0.55 2.72h-11.49l3.64-17.75h11.02l-0.56 2.72h-7.8l-0.95 4.59h6.69l-0.55 2.72h-6.7l-1.04 5zm18.99 2.72h-3.2l3.09-15.03h-5.52l0.54-2.72h14.25l-0.55 2.72h-5.51l-3.09 15.03z" />
		</g>
	</g>
</svg>