<svg version="1.2" baseProfile="tiny-ps" xmlns="http://www.w3.org/2000/svg" viewBox="0 0 140 42" width="140" height="42">
	<title>Clients</title>
	<style>
		tspan { white-space:pre }
		.s0 { fill: #707070 } 
	</style>
	<g id="Clients">
		<g id="Logo Set">
			<path id="Logo 2" class="s0" d="m46.2 0.91l-3.45 17.13c-0.35 1.75-0.87 3.3-1.55 4.6c-0.7 1.32-1.57 2.43-2.6 3.29c-1.04 0.87-2.25 1.52-3.62 1.93c-1.33 0.41-2.83 0.61-4.45 0.61c-1.51 0-2.83-0.18-3.95-0.52c-1.15-0.36-2.12-0.89-2.87-1.57c-0.77-0.69-1.32-1.55-1.65-2.52c-0.32-0.93-0.48-1.97-0.48-3.11c0-0.95 0.12-1.98 0.36-3.05l3.42-17.11l0.13-0.64h6.59l-0.19 0.95l-3.44 17.25c-0.15 0.78-0.22 1.47-0.22 2.05c0 0.47 0.05 0.88 0.16 1.21c0.1 0.3 0.24 0.54 0.44 0.74c0.18 0.18 0.46 0.33 0.81 0.44c0.41 0.12 0.92 0.18 1.52 0.18c0.72 0 1.37-0.09 1.93-0.27c0.53-0.18 0.97-0.45 1.37-0.83c0.4-0.4 0.75-0.92 1.03-1.54c0.29-0.66 0.54-1.49 0.73-2.47l3.44-17.07l0.13-0.64h6.61l-0.19 0.95zm-23.21-0.95h-16.19l-0.13 0.64l-0.83 4.11l-0.19 0.96h9.56l-2.54 12.61c-0.18 0.87-0.43 1.6-0.75 2.17c-0.31 0.55-0.66 0.99-1.05 1.31c-0.39 0.32-0.8 0.55-1.21 0.69c-0.43 0.14-0.82 0.22-1.18 0.22c-0.44 0-0.84-0.05-1.2-0.14c-0.35-0.09-0.69-0.21-1-0.37c-0.3-0.15-0.59-0.33-0.85-0.54c-0.27-0.21-0.51-0.43-0.73-0.66l-0.63-0.66l-0.57 0.72l-2.77 3.52l-0.42 0.54l0.46 0.5c0.42 0.45 0.92 0.86 1.46 1.22c0.54 0.35 1.13 0.65 1.77 0.9c0.63 0.24 1.29 0.42 1.97 0.55c0.69 0.13 1.41 0.2 2.13 0.2c1.51 0 2.9-0.22 4.12-0.66c1.22-0.43 2.3-1.04 3.22-1.81c0.92-0.77 1.69-1.68 2.3-2.72c0.61-1.03 1.04-2.16 1.29-3.37l3.76-18.96l0.19-0.95zm43.89 7.52c0-0.96-0.18-1.9-0.54-2.81c-0.37-0.93-0.98-1.76-1.8-2.46c-0.8-0.7-1.86-1.25-3.14-1.66c-1.25-0.39-2.79-0.59-4.58-0.59h-8.15l-0.13 0.64l-5.3 26.47l-0.19 0.95h6.6l0.13-0.64l1.55-7.86h2.13c2.23 0 4.21-0.33 5.88-0.98c1.68-0.66 3.09-1.56 4.2-2.67c1.11-1.12 1.96-2.42 2.5-3.88c0.55-1.44 0.82-2.95 0.82-4.5zm-7.28 2.93c-0.28 0.67-0.67 1.26-1.16 1.76c-0.5 0.5-1.11 0.89-1.83 1.18c-0.72 0.29-1.55 0.44-2.45 0.44h-1.7l1.64-8.11h2.12c0.85 0 1.55 0.08 2.06 0.24c0.48 0.16 0.85 0.35 1.1 0.58c0.24 0.22 0.39 0.46 0.48 0.73c0.1 0.32 0.15 0.66 0.15 1.01c0 0.77-0.14 1.5-0.42 2.17zm77.61 2.12c0.68-0.81 1.2-1.74 1.56-2.75c0.35-1.01 0.53-2.11 0.53-3.26c0-1.18-0.23-2.21-0.68-3.05c-0.46-0.85-1.11-1.55-1.96-2.08c-0.8-0.51-1.78-0.88-2.89-1.11c-1.07-0.22-2.28-0.33-3.58-0.33h-8.23l-0.13 0.64l-5.3 26.47l-0.19 0.95h6.59l0.13-0.64l2.04-10.31h0.12c0.42 0 0.79 0.05 1.1 0.15c0.27 0.08 0.51 0.23 0.73 0.46c0.25 0.26 0.48 0.63 0.69 1.1c0.23 0.53 0.44 1.21 0.64 2.04l1.62 6.6l0.15 0.61h7.27l-0.28-1.01l-1.82-6.57c-0.26-0.89-0.51-1.67-0.76-2.33c-0.24-0.67-0.51-1.26-0.78-1.75c-0.22-0.41-0.46-0.76-0.72-1.06c0.6-0.2 1.16-0.45 1.69-0.73c0.97-0.55 1.8-1.23 2.47-2.03zm-5.11-3.24c-0.24 0.49-0.57 0.88-1.01 1.21c-0.45 0.34-1.03 0.6-1.7 0.79c-0.71 0.19-1.51 0.29-2.39 0.29h-0.79l1.17-5.88h1.76c1.58 0 2.33 0.28 2.69 0.52c0.27 0.18 0.62 0.51 0.62 1.38c0 0.64-0.12 1.21-0.35 1.69zm-62.55-3.65l-3.36 16.7l-1.18 5.68h6.7l1.16-5.68l3.34-16.7l1.23-5.68h-6.76l-1.13 5.68zm47.66 6.06l0.18-0.95h-6.9l-0.18 0.95l-0.79 4.11l-0.12 0.65h6.9l0.13-0.65l0.79-4.11zm-11.27 4.76l1.11-5.7l1.01-4.99h10.83l0.13-0.63l0.87-4.22l0.2-0.96h-17.51v0h-23.37l-0.13 0.63l-0.87 4.15l-0.16 0.89h7.22l-4.25 21.43l-0.19 0.95h6.71l0.13-0.64l4.3-21.68h9.46l-4.28 21.37l-0.19 0.95h17.51l0.13-0.64l0.83-4.21l0.19-0.95h-10.83l1.16-5.76zm-84.09 25.38l1.21-6h1.51c0.78 0 1.36 0.16 1.75 0.49c0.39 0.33 0.59 0.84 0.59 1.53c0 0.12-0.01 0.27-0.02 0.45c-0.02 0.18-0.05 0.38-0.09 0.58c-0.04 0.21-0.1 0.43-0.18 0.66c-0.08 0.23-0.18 0.45-0.31 0.67c-0.13 0.22-0.28 0.42-0.46 0.62c-0.18 0.2-0.39 0.37-0.64 0.51c-0.25 0.15-0.53 0.26-0.85 0.35c-0.32 0.09-0.68 0.13-1.09 0.13h-1.42zm4.21-3.94c0-0.25-0.03-0.46-0.1-0.63c-0.07-0.17-0.17-0.31-0.3-0.42c-0.13-0.11-0.3-0.19-0.5-0.24c-0.2-0.05-0.43-0.08-0.7-0.08h-0.73l-0.93 4.6h0.56c0.3 0 0.57-0.03 0.81-0.1c0.24-0.07 0.45-0.17 0.63-0.29c0.18-0.12 0.34-0.26 0.47-0.42c0.13-0.16 0.25-0.33 0.34-0.51c0.09-0.18 0.17-0.36 0.23-0.54c0.06-0.18 0.1-0.36 0.14-0.53c0.03-0.17 0.05-0.33 0.07-0.47c0.01-0.14 0.01-0.27 0.01-0.37zm8.84 3.94h-3.43l1.21-6h3.43l-0.14 0.69h-2.61l-0.38 1.86h2.5l-0.13 0.69h-2.5l-0.41 2.06h2.61l-0.14 0.7zm9.94-6l-3.26 6h-1.1l-0.79-6h0.89l0.5 4.04l0.12 1.18l0.63-1.18l2.11-4.04h0.92zm5.88 6h-3.43l1.21-6h3.43l-0.14 0.69h-2.61l-0.38 1.86h2.5l-0.13 0.69h-2.5l-0.41 2.06h2.61l-0.14 0.7zm8.25 0h-3.47l1.21-6h0.83l-1.07 5.3h2.64l-0.14 0.7zm5.89 0.08c-0.62 0-1.08-0.17-1.38-0.53c-0.31-0.35-0.46-0.85-0.46-1.49c0-0.31 0.03-0.63 0.08-0.95c0.05-0.33 0.14-0.64 0.25-0.95c0.11-0.31 0.25-0.59 0.42-0.87c0.17-0.27 0.37-0.51 0.59-0.71c0.22-0.2 0.48-0.36 0.77-0.48c0.29-0.12 0.6-0.18 0.95-0.18c0.61 0 1.07 0.18 1.38 0.53c0.31 0.35 0.46 0.85 0.46 1.49c0 0.31-0.03 0.63-0.08 0.95c-0.06 0.32-0.14 0.64-0.25 0.95c-0.11 0.31-0.25 0.6-0.42 0.87c-0.17 0.27-0.37 0.51-0.59 0.71c-0.23 0.2-0.48 0.37-0.77 0.48c-0.29 0.12-0.6 0.18-0.94 0.18zm2.22-4.08c0-0.21-0.02-0.4-0.06-0.57c-0.04-0.17-0.11-0.31-0.2-0.43c-0.09-0.12-0.2-0.21-0.34-0.27c-0.14-0.07-0.3-0.1-0.5-0.1c-0.25 0-0.48 0.06-0.68 0.17c-0.2 0.11-0.38 0.26-0.54 0.45c-0.16 0.18-0.29 0.39-0.41 0.63c-0.11 0.24-0.21 0.48-0.28 0.73c-0.07 0.25-0.13 0.5-0.16 0.74c-0.04 0.24-0.05 0.46-0.05 0.66c0 0.21 0.02 0.39 0.06 0.56c0.04 0.17 0.11 0.31 0.2 0.43c0.09 0.12 0.2 0.21 0.34 0.28c0.14 0.06 0.3 0.1 0.5 0.1c0.25 0 0.48-0.06 0.68-0.17c0.2-0.11 0.38-0.26 0.54-0.45c0.16-0.19 0.29-0.4 0.41-0.63c0.11-0.24 0.21-0.48 0.28-0.73c0.07-0.25 0.13-0.5 0.16-0.74c0.03-0.24 0.05-0.46 0.05-0.66zm5.25 1.85l-0.44 2.15h-0.82l1.21-6h1.66c0.27 0 0.53 0.03 0.77 0.08c0.24 0.06 0.45 0.14 0.62 0.26c0.18 0.12 0.32 0.27 0.42 0.46c0.1 0.19 0.15 0.41 0.15 0.67c0 0.19-0.03 0.38-0.08 0.57c-0.05 0.19-0.13 0.37-0.24 0.55c-0.11 0.17-0.23 0.34-0.39 0.49c-0.16 0.15-0.33 0.29-0.54 0.4c-0.21 0.11-0.44 0.2-0.69 0.26c-0.26 0.07-0.54 0.1-0.84 0.1h-0.79zm2.71-2.3c0-0.27-0.1-0.49-0.3-0.64c-0.2-0.15-0.5-0.23-0.9-0.23h-0.88l-0.49 2.47h0.73c0.24 0 0.46-0.03 0.64-0.08c0.19-0.05 0.35-0.12 0.48-0.2c0.14-0.09 0.25-0.18 0.34-0.29c0.09-0.11 0.16-0.22 0.22-0.34c0.05-0.12 0.09-0.24 0.12-0.36c0.02-0.12 0.04-0.24 0.04-0.34zm9.26 4.45h-0.8l0.63-3.74l0.24-1.43l-0.45 0.83l-1.36 2.39h-0.57l-0.4-2.29l-0.09-0.93l-0.32 1.5l-0.84 3.67h-0.78l1.5-6h0.94l0.36 2.26l0.1 0.76l0.42-0.76l1.3-2.26h1.04l-0.92 6zm8.37 0h-3.43l1.21-6h3.43l-0.14 0.69h-2.6l-0.38 1.86h2.5l-0.13 0.69h-2.5l-0.41 2.06h2.61l-0.14 0.7zm7.11 0h-1.03l-1-3.74l-0.28-1.2l-0.6 3.02l-0.39 1.92h-0.77l1.21-6h1.02l0.95 3.54l0.33 1.37l0.64-3.21l0.35-1.7h0.77l-1.21 6zm9.32-5.3h-1.78l-1.07 5.3h-0.83l1.06-5.3h-1.78l0.14-0.7h4.4l-0.14 0.7z" />
		</g>
	</g>
</svg>